<?xml version="1.0" encoding="UTF-8"?>
<svg width="940px" height="479px" viewBox="0 0 940 479" version="1.1" xmlns="http://www.w3.org/2000/svg" xmlns:xlink="http://www.w3.org/1999/xlink">
    <title>CaseStudyYourHealthResearch</title>
    <g id="CaseStudyYourHealthResearch" stroke="none" stroke-width="1" fill="none" fill-rule="evenodd">
        <rect fill="#4B688B" x="0" y="0" width="940" height="479"></rect>
        <g id="Group-2" transform="translate(35.000000, 477.000000)" fill="#FFFFFF" font-family="Overpass-ExtraBold, Overpass ExtraBold" font-size="38" font-weight="600">
            <text id="MI-Research-Partners">
                <tspan x="37.513" y="37">MI Research Partnerships</tspan>
            </text>
        </g>
        <g id="undraw_medical_research_qg4d" transform="translate(159.000000, 58.000000)" fill-rule="nonzero">
            <rect id="Rectangle" fill="#CCCCCC" x="110" y="194" width="80" height="91"></rect>
            <polygon id="Path" fill="#E6E6E6" points="69.6764706 420 29.3235294 420 25 384 74 384"></polygon>
            <path d="M151.400656,394.605716 L150.016079,413.534541 C149.889268,415.267965 150.5171,416.971722 151.738379,418.208368 C152.959658,419.445013 154.655424,420.094092 156.390283,419.98895 L166.112859,419.400071 C167.024909,419.344662 167.865019,418.886315 168.405251,418.149386 C168.945483,417.412457 169.129818,416.473362 168.908242,415.586896 L163.511386,394 L151.400656,394.605716 Z" id="Path" fill="#E6E6E6"></path>
            <path d="M233.317718,405.418827 C244.356537,408.07471 252.242173,411.849773 257.422372,416.958869 C259.267147,418.764469 261.680999,419.828717 264.22451,419.957877 C267.473426,420.133613 270.129928,419.759061 272.126353,418.841911 L272.126671,418.841911 C273.168041,418.369727 273.878332,417.353608 273.981852,416.187947 C274.105102,415.003792 273.59407,413.84407 272.647052,413.158791 L246.466796,394 L235.346282,398.575498 L232.752143,401.243565 C232.182807,401.829276 231.913479,402.655688 232.024598,403.47598 C232.135717,404.296271 232.614422,405.015495 233.31774,405.418842 L233.317718,405.418827 Z" id="Path" fill="#E6E6E6"></path>
            <path d="M197.961662,98 L121,97.2878091 C121.193529,86.084782 123.80161,75.0836988 129.502586,65.239342 C133.246788,58.7739234 133.165896,51.7376101 132.263582,45.809653 C130.871126,36.6616204 134.109136,27.3018289 141.304374,21.4784508 C146.802999,17.0204207 153.742881,14.7255938 160.816904,15.0261964 L162.311311,15.088428 C172.203001,15.4992696 181.206147,20.9109901 186.205641,29.4511225 C188.706261,33.9376278 189.714705,39.1025821 189.085228,44.1995136 C188.597419,48.9953217 189.764653,53.8399794 192.49493,58.7307769 C197.205343,69.4702562 198.225368,83.2128068 197.961662,98 Z" id="Path" fill="#2F2E41"></path>
            <path d="M249,395.054238 L233.854738,399 L160.103914,238.538998 L164.713359,395.054238 L149.568082,395.054238 C133.384369,321.418067 104.165686,236.434082 117.302101,209.603408 L195.662347,205 L249,395.054238 Z" id="Path" fill="#76B8C7"></path>
            <circle id="Oval" fill="#FFB9B9" cx="159.5" cy="50.5" r="20.5"></circle>
            <path d="M177,89 L144,87 C147.234066,79.3522277 148.525935,71.9877602 147.235291,65 L171.823529,65 C171.767806,70.3652227 174.3592,79.6460652 177,89 Z" id="Path" fill="#FFB9B9"></path>
            <polygon id="Path" fill="#76B8C7" points="198 210.742441 125 216 132.495301 85.5575585 145.205351 81.9431689 159.544469 85.2287793 173.883587 78 183.008677 81.2863378"></polygon>
            <path d="M137.7182,305 L87,293.485504 C102.081164,243.852682 129.250604,130.307349 120.480675,89.8434796 L147,78 L137.7182,305 Z" id="Path" fill="#E6E6E6"></path>
            <path d="M112.729163,161 L94,149.371681 L109.972673,102.577522 C111.754142,97.7489408 115.166348,93.6947891 119.619344,91.1160018 L125,88 L121.77083,135.159276 L112.729163,161 Z" id="Path" fill="#E6E6E6"></path>
            <path d="M242,294.202722 C225.993395,303.425472 185.98228,308.566597 168.414278,302.125362 C167.121548,257.128183 164.586301,129.848071 172.72335,76 L201.892463,87.8839607 L199.240726,123.535843 C185.295515,154.034088 225.789384,260.259683 242,294.202722 Z" id="Path" fill="#E6E6E6"></path>
            <polygon id="Path" fill="#E6E6E6" points="240.045651 155 222.454349 148.999913 199 121.666348 202.909419 87 242 142.999826"></polygon>
            <path d="M183.128002,181.202603 C183.758885,183.825728 186.510982,185.470481 189.28108,184.879905 L205,181.506903 L202.728181,172 L187.008934,175.372362 C184.238353,175.96719 182.500967,178.577231 183.12801,181.202603 L183.128002,181.202603 Z" id="Path" fill="#FFB9B9"></path>
            <path d="M176.156264,44 C165.12558,39.6429059 154.231243,39.3276203 143.484393,43.3846188 L139,28 L180,28 L176.156264,44 Z" id="Path" fill="#2F2E41"></path>
            <path d="M199,170.25 L207.305552,186 C221.275361,181.99785 233.382388,169.380802 245,154.5 L241.805552,144 L222,149.25 L199,170.25 Z" id="Path" fill="#E6E6E6"></path>
            <path d="M192,137 L189.428571,137 C189.428571,99.6610109 181.94029,73.64 174.642861,73.64 L174,71 C180.544381,71 184.716696,81.8297202 187.064312,90.9150475 C190.247213,103.231721 192,119.598296 192,137 Z" id="Path" fill="#3F3D56"></path>
            <path d="M131.620718,128 L129,128 C129,93.458007 136.684522,72 148,72 L147.344824,74.6666667 C139.517973,74.6666667 131.620718,91.1578788 131.620718,128 Z" id="Path" fill="#3F3D56"></path>
            <circle id="Oval" fill="#3F3D56" cx="189.5" cy="138.5" r="6.5"></circle>
            <path d="M120.666667,143 L118,143 C118,134.177581 123.383136,127 130,127 L130,129.461538 C124.853519,129.461538 120.666667,135.534857 120.666667,143 Z" id="Path" fill="#3F3D56"></path>
            <path d="M142,143 L139.333333,143 C139.333333,135.534866 135.146481,129.461556 130,129.461556 L130,127 C136.616864,127 142,134.177592 142,143 Z" id="Path" fill="#3F3D56"></path>
            <circle id="Oval" fill="#3F3D56" cx="139.5" cy="144.5" r="2.5"></circle>
            <circle id="Oval" fill="#3F3D56" cx="119.5" cy="144.5" r="2.5"></circle>
            <polygon id="Path" fill="#76B8C7" points="86 120 102.435226 122.968642 140 177 120.043304 172.249877"></polygon>
            <path d="M82.3960726,120 C81.8788457,120.007688 81.4069346,120.293053 81.1648289,120.744533 C80.9227231,121.196012 80.9488758,121.7419 81.2330626,122.168786 L116.837613,175.521845 C117.036291,175.820115 117.343179,176.031819 117.695113,176.113388 L134.260854,179.962753 C134.832686,180.095678 135.428203,179.865814 135.757233,179.385163 C136.086264,178.904513 136.080362,178.273063 135.742404,177.798493 L96.6507977,122.902326 C96.4366931,122.600265 96.1098001,122.394644 95.7421125,122.330747 L82.6631029,120.023827 C82.5749672,120.008205 82.4856161,120 82.3960726,120 Z" id="Path" fill="#3F3D56"></path>
            <path d="M105,157.637354 L105.983998,168 L121.511448,166.388486 C124.248391,166.104483 126.246919,163.554496 125.975285,160.692931 C125.703651,157.831366 123.264717,155.741838 120.527774,156.02584 L105,157.637354 Z" id="Path" fill="#FFB9B9"></path>
            <path d="M93,156.90059 C93.0436501,163.590433 98.3551446,168.992252 104.897094,169 L107.271452,169 L109,154.269015 L94.6878463,149 L93,156.90059 Z" id="Path" fill="#E6E6E6"></path>
            <rect id="Rectangle" fill="#E6E6E6" x="322" y="0" width="300" height="159"></rect>
            <polygon id="Path" fill="#FFFFFF" points="331 149 614 149 614 9 331 9"></polygon>
            <rect id="Rectangle" fill="#3F3D56" x="353" y="29" width="100" height="100"></rect>
            <circle id="Oval" fill="#76B8C7" cx="429.5" cy="71.5" r="2.5"></circle>
            <circle id="Oval" fill="#76B8C7" cx="418.5" cy="62.5" r="2.5"></circle>
            <path d="M416.148435,71.976193 C415.071879,71.9763918 414.016512,72.2709523 413.09988,72.8270664 C412.292548,71.6311572 411.343593,70.5341353 410.273033,69.5591433 C410.285526,69.4053665 410.296871,69.2512799 410.296871,69.0943402 C410.298582,66.7824438 408.896677,64.6935899 406.736521,63.7893793 C404.576364,62.8851688 402.076646,63.3408594 400.388109,64.9466746 C398.821149,64.7276427 397.231641,64.7139815 395.661039,64.9060474 C395.662107,64.8608812 395.667959,64.8169542 395.667959,64.7715287 C395.67134,62.1132659 393.828583,59.7975078 391.207148,59.1657143 C388.585713,58.5339208 385.865614,59.749982 384.622535,62.1094646 C383.379456,64.4689472 383.935857,67.3597904 385.969429,69.1074023 C384.98985,69.9339412 384.101277,70.8597047 383.318385,71.8694051 C381.333507,70.2424644 378.500555,70.0895128 376.347038,71.4930209 C374.193522,72.896529 373.228694,75.5246023 373.972782,77.9602011 C374.716871,80.3957999 376.993918,82.0629662 379.576156,82.0627749 L379.594683,82.0618527 C379.585079,82.3014662 379.576156,82.5412957 379.576156,82.7832435 C379.576383,84.233435 379.754097,85.6783116 380.105452,87.0866024 C375.309664,88.8640952 372.402639,93.6756712 373.103834,98.6753599 C373.805029,103.675049 377.927532,107.530118 383.032949,107.960355 C388.138365,108.390592 392.865779,105.281312 394.419001,100.471605 C398.489307,101.242193 402.704664,100.626264 406.372584,98.7250016 C407.402995,101.114626 409.928057,102.530888 412.540258,102.184339 C415.152459,101.837791 417.207127,99.8139581 417.558956,97.2409588 C417.910784,94.6679596 416.472944,92.180792 414.046912,91.1658451 C415.31411,88.7970032 416.025918,86.1784249 416.129952,83.5028187 L416.148435,83.5037409 C419.380165,83.5037409 422,80.9232227 422,77.7399922 C422,74.5567616 419.380165,71.9762434 416.148435,71.9762434 L416.148435,71.976193 Z" id="Path" fill="#76B8C7"></path>
            <rect id="Rectangle" fill="#E6E6E6" x="387" y="27" width="29" height="4"></rect>
            <rect id="Rectangle" fill="#3F3D56" x="481" y="29" width="100" height="100"></rect>
            <circle id="Oval" fill="#76B8C7" cx="551" cy="97" r="1"></circle>
            <circle id="Oval" fill="#76B8C7" cx="546" cy="92" r="1"></circle>
            <path d="M546.253348,95.0908654 C545.748026,95.0909545 545.25265,95.2292153 544.822395,95.4902478 C544.443441,94.9289013 543.998011,94.4139707 543.495503,93.9563185 C543.50137,93.8841736 543.506695,93.8118182 543.506695,93.7381477 C543.507502,92.652969 542.849465,91.6724828 541.835512,91.2480571 C540.821559,90.8236313 539.64822,91.0375307 538.855644,91.7912863 C538.120132,91.6884716 537.374035,91.6820581 536.636814,91.772213 C536.637317,91.7510129 536.640064,91.7303915 536.640064,91.7090861 C536.641651,90.4613292 535.776683,89.3743402 534.546214,89.0777842 C533.315745,88.7812281 532.038964,89.3520331 531.455478,90.4595462 C530.871992,91.5670594 531.13316,92.9239868 532.087694,93.7442951 C531.627885,94.1322621 531.210794,94.5668048 530.843308,95.0407473 C529.911631,94.2770857 528.581882,94.2052952 527.571052,94.8640847 C526.560222,95.5228742 526.107345,96.7564569 526.45661,97.8996949 C526.805874,99.0429329 527.874688,99.8254798 529.086755,99.8253925 L529.095452,99.8249567 C529.090943,99.9374276 529.086755,100.050004 529.086755,100.163572 C529.086864,100.844269 529.17028,101.522472 529.335197,102.183503 C527.084119,103.017843 525.719604,105.27634 526.048739,107.623131 C526.377875,109.969923 528.312926,111.779443 530.709343,111.981391 C533.10576,112.183339 535.324748,110.723884 536.053814,108.466268 C537.964367,108.82797 539.943005,108.53886 541.664683,107.646431 C542.148345,108.768093 543.333578,109.43287 544.559714,109.270204 C545.785849,109.107538 546.750285,108.157575 546.915429,106.949839 C547.080573,105.742103 546.405668,104.574656 545.266918,104.098252 C545.861725,102.986345 546.195839,101.757214 546.244673,100.501316 L546.253348,100.501751 C547.770282,100.501751 549,99.2904867 549,97.7963159 C549,96.3021452 547.770282,95.0908805 546.253348,95.0908805 L546.253348,95.0908654 Z" id="Path" fill="#76B8C7"></path>
            <circle id="Oval" fill="#76B8C7" cx="560" cy="70" r="1"></circle>
            <circle id="Oval" fill="#76B8C7" cx="564" cy="66" r="1"></circle>
            <path d="M559.355067,65.1829275 C559.22101,64.7103045 558.957528,64.2839325 558.593968,63.9513014 C559.030018,63.4467327 559.404082,62.892401 559.708268,62.2999995 C559.778816,62.2861875 559.849356,62.2718269 559.919762,62.2521208 C560.957168,61.9626732 561.719834,61.0849826 561.856667,60.0230933 C561.9935,58.9612039 561.477978,57.9209359 560.547422,57.381176 C560.450685,56.6657252 560.259004,55.966154 559.977378,55.3007084 C559.997772,55.2955187 560.018211,55.2925531 560.038568,55.2868667 C561.231572,54.9546718 562.041169,53.8549477 561.998382,52.6247356 C561.955594,51.3945235 561.071521,50.3529453 559.858283,50.1033598 C558.645044,49.8537743 557.417359,50.4609249 556.886393,51.5731054 C556.393674,51.2467856 555.867766,50.9728756 555.317353,50.7558988 C555.800243,49.68024 555.516309,48.4172659 554.618648,47.6479648 C553.720986,46.8786638 552.421872,46.7849565 551.42178,47.4173695 C550.421687,48.0497825 549.957114,49.2587657 550.278556,50.3924422 L550.281279,50.400464 C550.172585,50.4263235 550.063876,50.4525092 549.95533,50.4828837 C549.304761,50.6650069 548.678663,50.9243859 548.090587,51.2554071 C546.69632,49.3729981 544.175915,48.7006793 542.020152,49.6361162 C539.864388,50.5715532 538.647912,52.8653931 539.090249,55.1608667 C539.532586,57.4563404 541.515826,59.1415596 543.866915,59.2197444 C544.027744,61.1034837 544.828659,62.8768638 546.138087,64.2485598 C545.194256,65.0009073 544.873114,66.2872795 545.35367,67.3906318 C545.834225,68.4939841 546.997882,69.1420174 548.195998,68.9735073 C549.394115,68.8049973 550.331004,67.861531 550.48443,66.6690118 C551.704871,66.9280115 552.968235,66.9118254 554.181547,66.6216447 L554.183427,66.6298741 C554.443034,67.548356 555.17634,68.2593282 556.106876,68.4947421 C557.037413,68.730156 558.023663,68.4542098 558.693795,67.7709397 C559.363927,67.0876696 559.616025,66.100988 559.355045,65.1828904 L559.355067,65.1829275 Z" id="Path" fill="#76B8C7"></path>
            <circle id="Oval" fill="#76B8C7" cx="510" cy="54" r="1"></circle>
            <circle id="Oval" fill="#76B8C7" cx="503" cy="54" r="1"></circle>
            <path d="M506.273906,56.8869108 C505.941888,57.2556706 505.71738,57.7106144 505.625388,58.2010705 C504.966117,58.0979478 504.297081,58.0747189 503.632394,58.1318737 C503.583506,58.0787775 503.534142,58.0259829 503.480309,57.9761657 C502.687788,57.2417065 501.538803,57.0587637 500.562291,57.5115553 C499.585779,57.9643469 498.971013,58.9651102 499.001002,60.0531416 C498.442508,60.5202662 497.947509,61.0603074 497.528916,61.6591795 C497.513753,61.6444733 497.500494,61.6285233 497.484907,61.6141111 C496.574087,60.7691334 495.211279,60.6651478 494.185925,61.3623905 C493.16057,62.0596333 492.738652,63.3772358 493.164577,64.5519419 C493.590503,65.726648 494.753784,66.4537323 495.98056,66.312012 C495.96192,66.9098702 496.005388,67.5080573 496.110246,68.0966953 C494.939891,68.2600429 494.013556,69.1817244 493.830714,70.364777 C493.647871,71.5478296 494.251758,72.7124922 495.316764,73.2307888 C496.38177,73.7490854 497.656049,73.4984523 498.45252,72.6140287 L498.457919,72.6073879 C498.537155,72.6867382 498.616674,72.7659301 498.699666,72.842725 C499.197189,73.302982 499.74764,73.700764 500.339105,74.0274611 C499.469494,76.2341613 500.223285,78.7571058 502.154623,80.1040141 C504.085961,81.4509223 506.680023,81.2627586 508.402463,79.6508188 C510.124903,78.0388789 510.516584,75.4328461 509.345832,73.3741463 C510.86572,72.2247463 511.954737,70.5855495 512.433983,68.7258364 C513.571544,69.1314773 514.836262,68.7162535 515.523164,67.7116175 C516.210066,66.7069814 516.149629,65.3608696 515.375542,64.4236262 C514.601455,63.4863829 513.304757,63.1893124 512.208247,63.6980067 C511.786555,62.5120723 511.107876,61.437075 510.222154,60.5521278 L510.22817,60.5460976 C510.874653,59.8303697 511.094872,58.8192029 510.805737,57.8941237 C510.516601,56.9690445 509.762125,56.2708716 508.826981,56.063035 C507.891837,55.8551983 506.918377,56.1693354 506.273899,56.8869183 L506.273906,56.8869108 Z" id="Path" fill="#76B8C7"></path>
            <rect id="Rectangle" fill="#E6E6E6" x="515" y="27" width="29" height="4"></rect>
            <path d="M17.9474986,372.434444 C28.6597182,386.517703 50.8961739,388 50.8961739,388 C50.8961739,388 55.7647211,366.648822 45.0525014,352.565556 C34.3402818,338.48229 12.1038261,337 12.1038261,337 C12.1038261,337 7.23527892,358.351178 17.9474986,372.434444 Z" id="Path" fill="#E6E6E6"></path>
            <path d="M71.4248176,375.928181 C64.3704382,385.040871 49.7269084,386 49.7269084,386 C49.7269084,386 46.5207955,372.184546 53.5751824,363.071855 C60.6295692,353.959165 75.2730916,353 75.2730916,353 C75.2730916,353 78.4792045,366.815469 71.4248176,375.928181 Z" id="Path" fill="#E6E6E6"></path>
            <rect id="Rectangle" fill="#3F3D56" x="0" y="419" width="378" height="2"></rect>
        </g>
    </g>
</svg>